HIERARCHY
ROOT Hips
{
  OFFSET 5.80788e-005 67.184 3.4734
  CHANNELS 6 Xposition Yposition Zposition Zrotation Xrotation Yrotation
  JOINT Chest
  {
    OFFSET 0 8.7983 -4.7612
    CHANNELS 6 Xposition Yposition Zposition Zrotation Xrotation Yrotation
    JOINT Chest2
    {
      OFFSET 0 8.0291 0.4195
      CHANNELS 6 Xposition Yposition Zposition Zrotation Xrotation Yrotation
      JOINT Chest3
      {
        OFFSET 0 9.9351 -2.2114
        CHANNELS 6 Xposition Yposition Zposition Zrotation Xrotation Yrotation
        JOINT Neck
        {
          OFFSET 0 22.3885 -0.4656
          CHANNELS 6 Xposition Yposition Zposition Zrotation Xrotation Yrotation
          JOINT Head
          {
            OFFSET -0.0001 12.643 3.4389
            CHANNELS 6 Xposition Yposition Zposition Zrotation Xrotation Yrotation
            End Site
            {
              OFFSET 0.0001 17.6655 0.5274
            }
          }
        }
        JOINT LeftCollar
        {
          OFFSET 2.2603 21.606 7.4023
          CHANNELS 6 Xposition Yposition Zposition Zrotation Xrotation Yrotation
          JOINT LeftShoulder
          {
            OFFSET 13.5163 -1.1332 -5.0146
            CHANNELS 6 Xposition Yposition Zposition Zrotation Xrotation Yrotation
            JOINT LeftElbow
            {
              OFFSET -0.0995 -28.05 -0.2431
              CHANNELS 6 Xposition Yposition Zposition Zrotation Xrotation Yrotation
              JOINT LeftWrist
              {
                OFFSET 0.0679 -23.3996 -0.1402
                CHANNELS 6 Xposition Yposition Zposition Zrotation Xrotation Yrotation
                JOINT LeftFinger1
                {
                  OFFSET 0.7932 -9.069 2.5189
                  CHANNELS 6 Xposition Yposition Zposition Zrotation Xrotation Yrotation
                  JOINT LeftFinger11
                  {
                    OFFSET -0.8272 -3.3923 0.5977
                    CHANNELS 6 Xposition Yposition Zposition Zrotation Xrotation Yrotation
                    JOINT LeftFinger12
                    {
                      OFFSET -0.5649 -2.3158 0.4082
                      CHANNELS 6 Xposition Yposition Zposition Zrotation Xrotation Yrotation
                      End Site
                      {
                        OFFSET -0.4919 -1.6479 0.2673
                      }
                    }
                  }
                }
                JOINT LeftFinger2
                {
                  OFFSET 0.9159 -9.2044 0.2193
                  CHANNELS 6 Xposition Yposition Zposition Zrotation Xrotation Yrotation
                  JOINT LeftFinger21
                  {
                    OFFSET 0.0117 -4.1944 -0.0248
                    CHANNELS 6 Xposition Yposition Zposition Zrotation Xrotation Yrotation
                    JOINT LeftFinger22
                    {
                      OFFSET 0.0071 -2.3249 -0.0142
                      CHANNELS 6 Xposition Yposition Zposition Zrotation Xrotation Yrotation
                      End Site
                      {
                        OFFSET -0.1475 -2.0882 0.0028
                      }
                    }
                  }
                }
                JOINT LeftFinger3
                {
                  OFFSET 0.6113 -8.7231 -2.0637
                  CHANNELS 6 Xposition Yposition Zposition Zrotation Xrotation Yrotation
                  JOINT LeftFinger31
                  {
                    OFFSET -0.1927 -3.8059 -0.2383
                    CHANNELS 6 Xposition Yposition Zposition Zrotation Xrotation Yrotation
                    JOINT LeftFinger32
                    {
                      OFFSET -0.1091 -2.1688 -0.1362
                      CHANNELS 6 Xposition Yposition Zposition Zrotation Xrotation Yrotation
                      End Site
                      {
                        OFFSET -0.2358 -1.9176 -0.0906
                      }
                    }
                  }
                }
                JOINT LeftFinger4
                {
                  OFFSET -0.6151 -8.0947 -3.5641
                  CHANNELS 6 Xposition Yposition Zposition Zrotation Xrotation Yrotation
                  JOINT LeftFinger41
                  {
                    OFFSET -0.4882 -2.341 -0.6462
                    CHANNELS 6 Xposition Yposition Zposition Zrotation Xrotation Yrotation
                    JOINT LeftFinger42
                    {
                      OFFSET -0.3575 -1.7167 -0.4742
                      CHANNELS 6 Xposition Yposition Zposition Zrotation Xrotation Yrotation
                      End Site
                      {
                        OFFSET -0.4187 -1.5237 -0.3496
                      }
                    }
                  }
                }
                JOINT LeftFinger0
                {
                  OFFSET -1.42 -1.8761 1.4223
                  CHANNELS 6 Xposition Yposition Zposition Zrotation Xrotation Yrotation
                  JOINT LeftFinger01
                  {
                    OFFSET -1.1471 -3.4929 2.6334
                    CHANNELS 6 Xposition Yposition Zposition Zrotation Xrotation Yrotation
                    JOINT LeftFinger02
                    {
                      OFFSET -0.823 -2.3 1.6571
                      CHANNELS 6 Xposition Yposition Zposition Zrotation Xrotation Yrotation
                      End Site
                      {
                        OFFSET -0.5822 -1.6914 1.1582
                      }
                    }
                  }
                }
              }
            }
          }
        }
        JOINT RightCollar
        {
          OFFSET -2.2603 21.606 7.4023
          CHANNELS 6 Xposition Yposition Zposition Zrotation Xrotation Yrotation
          JOINT RightShoulder
          {
            OFFSET -13.5187 -1.1334 -5.0155
            CHANNELS 6 Xposition Yposition Zposition Zrotation Xrotation Yrotation
            JOINT RightElbow
            {
              OFFSET 0.0994 -28.0499 -0.2431
              CHANNELS 6 Xposition Yposition Zposition Zrotation Xrotation Yrotation
              JOINT RightWrist
              {
                OFFSET -0.0679 -23.3996 -0.1402
                CHANNELS 6 Xposition Yposition Zposition Zrotation Xrotation Yrotation
                JOINT RightFinger1
                {
                  OFFSET -0.7932 -9.0691 2.5189
                  CHANNELS 6 Xposition Yposition Zposition Zrotation Xrotation Yrotation
                  JOINT RightFinger11
                  {
                    OFFSET 0.8272 -3.3923 0.5977
                    CHANNELS 6 Xposition Yposition Zposition Zrotation Xrotation Yrotation
                    JOINT RightFinger12
                    {
                      OFFSET 0.565 -2.3158 0.4082
                      CHANNELS 6 Xposition Yposition Zposition Zrotation Xrotation Yrotation
                      End Site
                      {
                        OFFSET 0.4919 -1.6479 0.2673
                      }
                    }
                  }
                }
                JOINT RightFinger2
                {
                  OFFSET -0.916 -9.2044 0.2193
                  CHANNELS 6 Xposition Yposition Zposition Zrotation Xrotation Yrotation
                  JOINT RightFinger21
                  {
                    OFFSET -0.0117 -4.1944 -0.0248
                    CHANNELS 6 Xposition Yposition Zposition Zrotation Xrotation Yrotation
                    JOINT RightFinger22
                    {
                      OFFSET -0.0071 -2.3249 -0.0142
                      CHANNELS 6 Xposition Yposition Zposition Zrotation Xrotation Yrotation
                      End Site
                      {
                        OFFSET 0.1475 -2.0882 0.0028
                      }
                    }
                  }
                }
                JOINT RightFinger3
                {
                  OFFSET -0.6113 -8.7231 -2.0637
                  CHANNELS 6 Xposition Yposition Zposition Zrotation Xrotation Yrotation
                  JOINT RightFinger31
                  {
                    OFFSET 0.1927 -3.8059 -0.2383
                    CHANNELS 6 Xposition Yposition Zposition Zrotation Xrotation Yrotation
                    JOINT RightFinger32
                    {
                      OFFSET 0.1091 -2.1688 -0.1362
                      CHANNELS 6 Xposition Yposition Zposition Zrotation Xrotation Yrotation
                      End Site
                      {
                        OFFSET 0.2358 -1.9176 -0.0906
                      }
                    }
                  }
                }
                JOINT RightFinger4
                {
                  OFFSET 0.6151 -8.0947 -3.564
                  CHANNELS 6 Xposition Yposition Zposition Zrotation Xrotation Yrotation
                  JOINT RightFinger41
                  {
                    OFFSET 0.4882 -2.341 -0.6462
                    CHANNELS 6 Xposition Yposition Zposition Zrotation Xrotation Yrotation
                    JOINT RightFinger42
                    {
                      OFFSET 0.3574 -1.7166 -0.4742
                      CHANNELS 6 Xposition Yposition Zposition Zrotation Xrotation Yrotation
                      End Site
                      {
                        OFFSET 0.4187 -1.5237 -0.3496
                      }
                    }
                  }
                }
                JOINT RightFinger0
                {
                  OFFSET 1.4199 -1.8761 1.4221
                  CHANNELS 6 Xposition Yposition Zposition Zrotation Xrotation Yrotation
                  JOINT RightFinger01
                  {
                    OFFSET 1.1472 -3.4929 2.6336
                    CHANNELS 6 Xposition Yposition Zposition Zrotation Xrotation Yrotation
                    JOINT RightFinger02
                    {
                      OFFSET 0.8229 -2.3 1.6571
                      CHANNELS 6 Xposition Yposition Zposition Zrotation Xrotation Yrotation
                      End Site
                      {
                        OFFSET 0.5822 -1.6914 1.1582
                      }
                    }
                  }
                }
              }
            }
          }
        }
      }
    }
  }
  JOINT RightHip
  {
    OFFSET -9.412 3.9771 -0.7758
    CHANNELS 6 Xposition Yposition Zposition Zrotation Xrotation Yrotation
    JOINT RightKnee
    {
      OFFSET -0.7531 -40.938 0
      CHANNELS 6 Xposition Yposition Zposition Zrotation Xrotation Yrotation
      JOINT RightAnkle
      {
        OFFSET 0 -40.1986 0
        CHANNELS 6 Xposition Yposition Zposition Zrotation Xrotation Yrotation
        JOINT RightToe
        {
          OFFSET 0 -4.4182 9.239
          CHANNELS 6 Xposition Yposition Zposition Zrotation Xrotation Yrotation
          End Site
          {
            OFFSET 0 0 6.1981
          }
        }
      }
    }
  }
  JOINT LeftHip
  {
    OFFSET 9.4119 3.9773 -0.7758
    CHANNELS 6 Xposition Yposition Zposition Zrotation Xrotation Yrotation
    JOINT LeftKnee
    {
      OFFSET 0.7532 -40.9383 0
      CHANNELS 6 Xposition Yposition Zposition Zrotation Xrotation Yrotation
      JOINT LeftAnkle
      {
        OFFSET 0 -40.1986 0
        CHANNELS 6 Xposition Yposition Zposition Zrotation Xrotation Yrotation
        JOINT LeftToe
        {
          OFFSET 0 -4.4182 9.239
          CHANNELS 6 Xposition Yposition Zposition Zrotation Xrotation Yrotation
          End Site
          {
            OFFSET 0 0 6.1981
          }
        }
      }
    }
  }
}
MOTION
Frames:	4
Frame Time:	0.0333333
5.80788e-005 67.184 3.4734 0 0 -0 0 8.7983 -4.7612 0 0 -0 0 8.0291 0.4195 0 0 -0 0 9.9351 -2.2114 0 0 -0 0 22.3885 -0.4656 0 0 -0 -0.0001 12.643 3.4389 0 0 -0 2.2603 21.606 7.4023 0 0 -12.5014 13.5163 -1.1332 -5.0146 88.1196 14.2451 10.6914 -0.0995 -28.05 -0.2431 -0.00160068 -0.00239207 0.000740045 0.0679 -23.3996 -0.1402 -8.4365e-005 7.00714e-005 -9.52055e-007 0.7932 -9.069 2.5189 9.93923e-017 -1.98785e-016 -1.59028e-015 -0.8272 -3.3923 0.5977 9.93923e-017 -5.96354e-016 -1.59028e-015 -0.5649 -2.3158 0.4082 -9.93923e-017 -5.96354e-016 -1.59028e-015 0.9159 -9.2044 0.2193 9.93923e-017 -1.98785e-016 -1.59028e-015 0.0117 -4.1944 -0.0248 -0.0128176 0.00232552 8.52707e-005 0.0071 -2.3249 -0.0142 9.93923e-017 5.96354e-016 -0 0.6113 -8.7231 -2.0637 9.93923e-017 -1.98785e-016 -1.59028e-015 -0.1927 -3.8059 -0.2383 -0.0160551 0.00299681 0.000857156 -0.1091 -2.1688 -0.1362 -2.48481e-016 0 3.18055e-015 -0.6151 -8.0947 -3.5641 9.93923e-017 -1.98785e-016 -1.59028e-015 -0.4882 -2.341 -0.6462 -0.0125865 0.0031206 0.00282719 -0.3575 -1.7167 -0.4742 0 1.98785e-016 -0 -1.42 -1.8761 1.4223 9.93923e-017 -1.98785e-016 -1.59028e-015 -1.1471 -3.4929 2.6334 9.93923e-017 -5.96354e-016 -1.59028e-015 -0.823 -2.3 1.6571 -9.93923e-017 -5.96354e-016 -1.59028e-015 -2.2603 21.606 7.4023 -0.865644 0.16582 7.03859 -13.5187 -1.1334 -5.0155 -88.0329 10.2057 -10.5567 0.0994 -28.0499 -0.2431 0.0015593 -0.00248883 -0.000788628 -0.0679 -23.3996 -0.1402 7.87605e-005 4.10553e-005 1.24965e-005 -0.7932 -9.0691 2.5189 -3.97569e-016 -7.95139e-016 3.18055e-015 0.8272 -3.3923 0.5977 -1.98785e-016 -3.97569e-016 3.18055e-015 0.565 -2.3158 0.4082 -1.98785e-016 0 3.18055e-015 -0.916 -9.2044 0.2193 -3.97569e-016 -7.95139e-016 3.18055e-015 -0.0117 -4.1944 -0.0248 0.0129473 0.00231697 -8.70038e-005 -0.0071 -2.3249 -0.0142 9.93923e-017 -7.95139e-016 1.59028e-015 -0.6113 -8.7231 -2.0637 -3.97569e-016 -7.95139e-016 3.18055e-015 0.1927 -3.8059 -0.2383 0.0163314 0.00303369 -0.000872333 0.1091 -2.1688 -0.1362 3.97569e-016 7.95139e-016 -3.18055e-015 0.6151 -8.0947 -3.564 -3.97569e-016 -7.95139e-016 3.18055e-015 0.4882 -2.341 -0.6462 0.0145763 0.00367772 -0.00326275 0.3574 -1.7166 -0.4742 9.93923e-017 -3.97569e-016 -0 1.4199 -1.8761 1.4221 -3.97569e-016 -7.95139e-016 3.18055e-015 1.1472 -3.4929 2.6336 -1.98785e-016 -3.97569e-016 3.18055e-015 0.8229 -2.3 1.6571 -1.98785e-016 0 3.18055e-015 -9.412 3.9771 -0.7758 3.42485 1.36937 -0.0640303 -0.7531 -40.938 0 0.000136572 0.69354 0.00145564 1.77636e-015 -40.1986 -1.11022e-016 -3.42573 -2.06297 -0.0607933 8.88178e-016 -4.4182 9.239 -3.19502e-024 0 -1.48106e-024 9.4119 3.9773 -0.7758 -3.42498 1.36123 0.0639712 0.7532 -40.9383 2.22045e-016 -6.769e-005 0.712612 -0.0012277 8.88179e-016 -40.1986 0 3.42582 -2.07388 0.0612819 -8.88178e-016 -4.4182 9.239 2.55305e-023 0 -2.31416e-026 
6.82263e-005 -3.55711 3.53824 0 0 -0 0 8.7983 -4.7612 0 0.199556 -0 0 8.0291 0.4195 0 0.399113 -0 0 9.9351 -2.2114 0 0.399112 -0 0 22.3885 -0.4656 0 4.87644e-005 -0 -0.0001 12.643 3.4389 0 0 -0 2.2603 21.606 7.4023 -3.28288e-009 4.91656e-005 -14.5036 13.5163 -1.1332 -5.0146 11.5456 -66.1486 9.52616 -0.0995 -28.05 -0.2431 -6.64282 -31.3583 -2.91279 0.0679 -23.3996 -0.1402 4.91618 -0.883737 0.190437 0.7932 -9.069 2.5189 -3.48536e-007 -1.498e-006 5.16921e-006 -0.8272 -3.3923 0.5977 3.18055e-015 0 1.19271e-015 -0.5649 -2.3158 0.4082 3.18055e-015 0 9.93923e-016 0.9159 -9.2044 0.2193 -3.48536e-007 -1.498e-006 5.16921e-006 0.0117 -4.1944 -0.0248 -0.0128301 0.0023279 8.95098e-005 0.0071 -2.3249 -0.0142 4.77083e-015 -7.95139e-015 -5.96354e-016 0.6113 -8.7231 -2.0637 -3.48536e-007 -1.498e-006 5.16921e-006 -0.1927 -3.8059 -0.2383 -0.01604 0.00299848 0.000859736 -0.1091 -2.1688 -0.1362 4.77083e-015 0 -0 -0.6151 -8.0947 -3.5641 -3.48536e-007 -1.498e-006 5.16921e-006 -0.4882 -2.341 -0.6462 -0.0126053 0.00312285 0.00283597 -0.3575 -1.7167 -0.4742 0 0 -0 -1.42 -1.8761 1.4223 -3.48536e-007 -1.498e-006 5.16921e-006 -1.1471 -3.4929 2.6334 3.18055e-015 0 1.19271e-015 -0.823 -2.3 1.6571 3.18055e-015 0 9.93923e-016 -2.2603 21.606 7.4023 -0.881203 -0.0176903 19.035 -13.5187 -1.1334 -5.0155 -19.4341 -68.6055 -1.57354 0.0994 -28.0499 -0.2431 6.42871 -31.4055 2.41993 -0.0679 -23.3996 -0.1402 -9.84181 -1.70345 -0.701888 -0.7932 -9.0691 2.5189 -3.18055e-015 0 -0 0.8272 -3.3923 0.5977 -3.18055e-015 0 3.18055e-015 0.565 -2.3158 0.4082 -1.59028e-015 0 3.97569e-015 -0.916 -9.2044 0.2193 -3.18055e-015 0 -0 -0.0117 -4.1944 -0.0248 0.0129797 0.00231476 -7.57655e-005 -0.0071 -2.3249 -0.0142 -3.18055e-015 0 3.18055e-015 -0.6113 -8.7231 -2.0637 -3.18055e-015 0 -0 0.1927 -3.8059 -0.2383 0.0163369 0.00303665 -0.000879004 0.1091 -2.1688 -0.1362 1.59028e-015 0 -2.38542e-015 0.6151 -8.0947 -3.564 -3.18055e-015 0 -0 0.4882 -2.341 -0.6462 0.0146105 0.0036894 -0.0032665 0.3574 -1.7166 -0.4742 2.20695e-031 -3.18055e-015 3.97569e-015 1.4199 -1.8761 1.4221 -3.18055e-015 0 -0 1.1472 -3.4929 2.6336 -3.18055e-015 0 3.18055e-015 0.8229 -2.3 1.6571 -1.59028e-015 0 3.97569e-015 -9.412 3.9771 -0.7758 -30.4322 -67.5524 -46.0361 -0.7531 -40.938 8.88179e-016 179.737 21.4251 168.939 -1.77636e-015 -40.1986 0 6.68657 52.5002 -10.7381 0 -4.4182 9.239 2.10892e-006 4.55847e-006 -5.36543e-007 9.4119 3.9773 -0.7758 29.1524 -66.6274 44.6482 0.7532 -40.9383 3.10862e-015 -179.736 21.4213 -168.952 8.88178e-016 -40.1986 1.77636e-015 -6.67281 52.4297 10.7177 -8.88178e-016 -4.4182 9.239 3.18055e-015 0 1.59028e-015 
6.82263e-005 -3.55711 3.53824 0 0 -0 0 8.7983 -4.7612 0 0.199556 -0 0 8.0291 0.4195 0 0.399113 -0 0 9.9351 -2.2114 0 0.399112 -0 0 22.3885 -0.4656 0.0926944 0.319112 0.595575 -0.0001 12.643 3.4389 0.0170711 0.221187 0.165555 2.2603 21.606 7.4023 -2.8543e-009 5.01259e-005 -14.5036 13.5163 -1.1332 -5.0146 11.5457 -66.1486 9.52622 -0.0995 -28.05 -0.2431 -6.4319 -30.5794 -2.77876 0.0679 -23.3996 -0.1402 4.91618 -0.883751 0.190418 0.7932 -9.069 2.5189 5.78172e-006 -1.32871e-007 -7.65785e-006 -0.8272 -3.3923 0.5977 -4.77083e-015 6.36111e-015 9.93923e-016 -0.5649 -2.3158 0.4082 1.30293e-006 1.00831e-005 7.5126e-006 0.9159 -9.2044 0.2193 5.78172e-006 -1.32871e-007 -7.65785e-006 0.0117 -4.1944 -0.0248 -0.0128164 0.00233512 8.7453e-005 0.0071 -2.3249 -0.0142 -3.31043e-032 -3.18055e-015 -5.96354e-016 0.6113 -8.7231 -2.0637 5.78172e-006 -1.32871e-007 -7.65785e-006 -0.1927 -3.8059 -0.2383 -0.0160442 0.00299078 0.000859486 -0.1091 -2.1688 -0.1362 -3.13137e-007 7.78595e-006 -6.59785e-006 -0.6151 -8.0947 -3.5641 5.78172e-006 -1.32871e-007 -7.65785e-006 -0.4882 -2.341 -0.6462 -0.0126075 0.00313428 0.00282515 -0.3575 -1.7167 -0.4742 -1.59028e-015 -1.59028e-015 -1.98785e-016 -1.42 -1.8761 1.4223 5.78172e-006 -1.32871e-007 -7.65785e-006 -1.1471 -3.4929 2.6334 -4.77083e-015 6.36111e-015 9.93923e-016 -0.823 -2.3 1.6571 1.30293e-006 1.00831e-005 7.5126e-006 -2.2603 21.606 7.4023 -0.881203 -0.0176892 19.035 -13.5187 -1.1334 -5.0155 -19.4342 -68.6055 -1.57357 0.0994 -28.0499 -0.2431 7.10793 -33.9389 2.83488 -0.0679 -23.3996 -0.1402 -9.84183 -1.70348 -0.701889 -0.7932 -9.0691 2.5189 -6.47575e-006 7.96185e-006 1.86675e-006 0.8272 -3.3923 0.5977 -3.4848e-007 6.42534e-007 5.3006e-006 0.565 -2.3158 0.4082 -2.37809e-006 -6.85214e-007 -2.65715e-006 -0.916 -9.2044 0.2193 -6.47575e-006 7.96185e-006 1.86675e-006 -0.0117 -4.1944 -0.0248 0.0129609 0.00232278 -7.45117e-005 -0.0071 -2.3249 -0.0142 -1.97192e-006 -4.83833e-007 -1.06568e-006 -0.6113 -8.7231 -2.0637 -6.47575e-006 7.96185e-006 1.86675e-006 0.1927 -3.8059 -0.2383 0.0163424 0.00304382 -0.000866799 0.1091 -2.1688 -0.1362 4.2566e-007 -9.69018e-006 4.73929e-007 0.6151 -8.0947 -3.564 -6.47575e-006 7.96185e-006 1.86675e-006 0.4882 -2.341 -0.6462 0.0146083 0.00368346 -0.00326287 0.3574 -1.7166 -0.4742 -4.77083e-015 6.36111e-015 -2.38542e-015 1.4199 -1.8761 1.4221 -6.47575e-006 7.96185e-006 1.86675e-006 1.1472 -3.4929 2.6336 -3.4848e-007 6.42534e-007 5.3006e-006 0.8229 -2.3 1.6571 -2.37809e-006 -6.85214e-007 -2.65715e-006 -9.412 3.9771 -0.7758 -30.4322 -67.5524 -46.0361 -0.7531 -40.938 8.88179e-016 179.737 21.4251 168.939 -1.77636e-015 -40.1986 0 6.68657 52.5002 -10.7381 0 -4.4182 9.239 2.10892e-006 4.55847e-006 -5.36543e-007 9.4119 3.9773 -0.7758 29.1524 -66.6274 44.6481 0.7532 -40.9383 2.66454e-015 -179.736 21.4212 -168.952 1.77636e-015 -40.1986 0 -6.67283 52.4297 10.7177 -1.77636e-015 -4.4182 9.239 -1.23803e-006 -5.22009e-006 2.08599e-006 
6.82263e-005 -3.55711 3.53824 0 0 -0 0 8.7983 -4.7612 0 0.199556 -0 0 8.0291 0.4195 0 0.399113 -0 0 9.9351 -2.2114 0 0.399112 -0 0 22.3885 -0.4656 0.182237 0.639728 1.19179 -0.0001 12.643 3.4389 0.033509 0.44249 0.331099 2.2603 21.606 7.4023 -2.8543e-009 5.01259e-005 -14.5036 13.5163 -1.1332 -5.0146 11.5456 -66.1487 9.52617 -0.0995 -28.05 -0.2431 -6.22456 -29.7998 -2.64899 0.0679 -23.3996 -0.1402 4.91616 -0.88378 0.190421 0.7932 -9.069 2.5189 1.59028e-015 -7.95139e-016 -7.95139e-016 -0.8272 -3.3923 0.5977 1.59028e-015 -7.95139e-016 -3.97569e-016 -0.5649 -2.3158 0.4082 1.59028e-015 -7.95139e-016 -3.97569e-016 0.9159 -9.2044 0.2193 1.59028e-015 -7.95139e-016 -7.95139e-016 0.0117 -4.1944 -0.0248 -0.0128113 0.00232699 8.03193e-005 0.0071 -2.3249 -0.0142 -1.59028e-015 -7.95139e-016 1.98785e-016 0.6113 -8.7231 -2.0637 1.59028e-015 -7.95139e-016 -7.95139e-016 -0.1927 -3.8059 -0.2383 -0.0160529 0.00298123 0.000858877 -0.1091 -2.1688 -0.1362 4.77083e-015 -3.18055e-015 1.98785e-016 -0.6151 -8.0947 -3.5641 1.59028e-015 -7.95139e-016 -7.95139e-016 -0.4882 -2.341 -0.6462 -0.0125905 0.00311175 0.00282971 -0.3575 -1.7167 -0.4742 0 0 -5.96354e-016 -1.42 -1.8761 1.4223 1.59028e-015 -7.95139e-016 -7.95139e-016 -1.1471 -3.4929 2.6334 1.59028e-015 -7.95139e-016 -3.97569e-016 -0.823 -2.3 1.6571 1.59028e-015 -7.95139e-016 -3.97569e-016 -2.2603 21.606 7.4023 -0.881203 -0.0176892 19.035 -13.5187 -1.1334 -5.0155 -19.4342 -68.6055 -1.5736 0.0994 -28.0499 -0.2431 7.83259 -36.4718 3.30108 -0.0679 -23.3996 -0.1402 -9.84179 -1.70356 -0.701877 -0.7932 -9.0691 2.5189 -1.59028e-015 0 -3.97569e-015 0.8272 -3.3923 0.5977 0 0 -2.38542e-015 0.565 -2.3158 0.4082 -8.82781e-032 -6.36111e-015 -7.95139e-016 -0.916 -9.2044 0.2193 -1.59028e-015 0 -3.97569e-015 -0.0117 -4.1944 -0.0248 0.0129516 0.0023242 -8.28252e-005 -0.0071 -2.3249 -0.0142 3.18055e-015 -3.18055e-015 -2.38542e-015 -0.6113 -8.7231 -2.0637 -1.59028e-015 0 -3.97569e-015 0.1927 -3.8059 -0.2383 0.0163379 0.00305145 -0.000879428 0.1091 -2.1688 -0.1362 3.18055e-015 6.36111e-015 1.59028e-015 0.6151 -8.0947 -3.564 -1.59028e-015 0 -3.97569e-015 0.4882 -2.341 -0.6462 0.0146048 0.00368784 -0.00326074 0.3574 -1.7166 -0.4742 -4.77083e-015 3.18055e-015 3.18055e-015 1.4199 -1.8761 1.4221 -1.59028e-015 0 -3.97569e-015 1.1472 -3.4929 2.6336 0 0 -2.38542e-015 0.8229 -2.3 1.6571 -8.82781e-032 -6.36111e-015 -7.95139e-016 -9.412 3.9771 -0.7758 -30.4322 -67.5524 -46.0361 -0.7531 -40.938 8.88179e-016 179.737 21.4251 168.939 -1.77636e-015 -40.1986 0 6.68657 52.5002 -10.7381 0 -4.4182 9.239 2.10892e-006 4.55847e-006 -5.36543e-007 9.4119 3.9773 -0.7758 29.1524 -66.6274 44.6481 0.7532 -40.9383 2.66454e-015 -179.736 21.4212 -168.952 1.77636e-015 -40.1986 0 -6.67283 52.4297 10.7177 -1.77636e-015 -4.4182 9.239 -1.23803e-006 -5.22009e-006 2.08599e-006 
